<svg width="25" height="24" viewBox="0 0 25 24" fill="none" xmlns="http://www.w3.org/2000/svg">
<circle cx="12.916" cy="12" r="12" fill="#555A7B"/>
<path d="M19.1702 16.0278C19.1314 15.735 18.9621 15.4826 18.7059 15.3353L15.6961 13.6047C15.3275 13.3927 14.8598 13.4544 14.5589 13.7549L13.9661 14.3469C13.8083 14.5045 13.5588 14.5184 13.3857 14.3793C12.9183 14.0038 12.4581 13.5904 12.018 13.1508C11.5778 12.7113 11.1639 12.2518 10.7879 11.785C10.6485 11.6121 10.6625 11.3629 10.8203 11.2053L11.4131 10.6133C11.714 10.3129 11.7758 9.84592 11.5635 9.47771L9.83061 6.472C9.68305 6.21607 9.43031 6.04709 9.13715 6.00835C8.84396 5.96954 8.55588 6.06719 8.34677 6.27602L7.4535 7.1681C6.83004 7.79074 6.82003 8.92965 7.4253 10.3751C8.00731 11.7649 9.09343 13.2949 10.4835 14.6832C11.8737 16.0715 13.4058 17.1561 14.7975 17.7373C15.51 18.0349 16.148 18.1835 16.6867 18.1835C17.2424 18.1835 17.6923 18.0253 18.0089 17.7091L18.9021 16.8171C19.1112 16.6082 19.2089 16.3205 19.1702 16.0278ZM15.4989 13.9467L18.5087 15.6773C18.6575 15.7629 18.7558 15.9095 18.7783 16.0795C18.7972 16.2222 18.7601 16.3628 18.676 16.476L14.676 14.1962L14.8384 14.034C15.0131 13.8595 15.2848 13.8236 15.4989 13.9467ZM9.08529 6.39966C9.25559 6.42216 9.40238 6.52031 9.48807 6.66896L11.221 9.67467C11.3443 9.88852 11.3084 10.1598 11.1336 10.3342L10.9844 10.4832L8.68902 6.50189C8.78285 6.4325 8.89507 6.39482 9.01206 6.39482C9.03633 6.39482 9.06081 6.39643 9.08529 6.39966ZM17.7293 17.43C17.234 17.9247 16.221 17.9039 14.95 17.3731C13.6046 16.8113 12.1177 15.7569 10.7631 14.4041C9.40844 13.0513 8.35256 11.5664 7.78995 10.2228C7.25841 8.95352 7.23767 7.94186 7.73298 7.44719L8.39612 6.78492L10.695 10.7723L10.5408 10.9263C10.24 11.2267 10.2138 11.7022 10.4799 12.0325C10.8648 12.5102 11.2883 12.9804 11.7385 13.43C12.1887 13.8795 12.6595 14.3024 13.1379 14.6868C13.4685 14.9525 13.9447 14.9264 14.2456 14.626L14.3862 14.4855L18.3918 16.7685L17.7293 17.43Z" fill="white"/>
</svg>
