<svg xmlns="http://www.w3.org/2000/svg" width="42" height="42" version="1.2" viewBox="0 0 42 42"><title>Vector</title><style>.s0{fill:#73c22e}</style><path id="Vector" fill-rule="evenodd" d="m21 1.8c2.5 0 5 0.5 7.3 1.5 2.4 0.9 4.5 2.3 6.3 4.1 1.8 1.8 3.2 3.9 4.1 6.3 1 2.3 1.5 4.8 1.5 7.3 0 2.5-0.5 5-1.5 7.3-0.9 2.4-2.3 4.5-4.1 6.3-1.8 1.8-3.9 3.2-6.3 4.1-2.3 1-4.8 1.5-7.3 1.5-5.1 0-10-2-13.6-5.6-3.6-3.6-5.6-8.5-5.6-13.6 0-5.1 2-10 5.6-13.6 3.6-3.6 8.5-5.6 13.6-5.6zm10 27v-15.6c0-1.2-1-2.2-2.2-2.2h-15.6c-1.2 0-2.2 1-2.2 2.2v15.6c0 1.2 1 2.2 2.2 2.2h15.6c1.2 0 2.2-1 2.2-2.2zm-5.2-12c-0.3 0-0.6-0.3-0.6-0.6v-2.4q0-0.2 0.2-0.4 0.2-0.2 0.4-0.2h2.4q0.2 0 0.4 0.2 0.2 0.2 0.2 0.4v2.4q0 0.2-0.2 0.4-0.2 0.2-0.4 0.2zm1.2 4.2q0-0.5-0.1-1h2.1v8q0 0.4-0.3 0.7-0.3 0.3-0.7 0.3h-14c-0.6 0-1-0.5-1-1v-8h2.1q-0.1 0.5-0.1 1c0 1.6 0.6 3.1 1.8 4.2 1.1 1.2 2.6 1.8 4.2 1.8 1.6 0 3.1-0.6 4.2-1.8 1.2-1.1 1.8-2.6 1.8-4.2zm-6 4c-1.1 0-2.1-0.4-2.8-1.2-0.8-0.7-1.2-1.7-1.2-2.8 0-1.1 0.4-2.1 1.2-2.8 0.7-0.8 1.7-1.2 2.8-1.2q0.8 0 1.5 0.3 0.8 0.3 1.3 0.9 0.6 0.5 0.9 1.3 0.3 0.7 0.3 1.5 0 0.8-0.3 1.5-0.3 0.8-0.9 1.3-0.5 0.6-1.3 0.9-0.7 0.3-1.5 0.3z" class="s0"/></svg>