<svg xmlns="http://www.w3.org/2000/svg" width="36" height="34" version="1.2" viewBox="0 0 36 34"><title>Vector</title><style>.s0{fill:#9965e3}</style><path id="Vector" fill-rule="evenodd" d="m25.5 21.7q0 0 0 0 0 0 0 0zm0 0q0.1 0 0.2 0.2l7.7 7.6c0.4 0.4 0.6 0.9 0.6 1.4 0 0.5-0.2 1-0.6 1.4-0.4 0.4-0.9 0.6-1.4 0.6-0.5 0-1-0.2-1.4-0.6l-7.7-7.6q-0.1-0.1-0.2-0.3c-2.7 2-5.9 2.8-9.2 2.5-3.2-0.4-6.2-2-8.4-4.5-2.1-2.4-3.2-5.6-3.1-8.9 0.1-3.2 1.5-6.3 3.8-8.6 2.3-2.3 5.4-3.6 8.7-3.8 3.3-0.1 6.5 1 9 3.1 2.4 2.1 4 5.1 4.4 8.3 0.4 3.3-0.5 6.5-2.4 9.2zm-2.8 2.7q0 0 0 0 0 0 0 0zm3.3-10.4c0-2.9-1.2-5.7-3.2-7.7-2.1-2-4.9-3.2-7.8-3.2-2.9 0-5.7 1.2-7.8 3.2-2 2-3.2 4.8-3.2 7.7 0 1.5 0.3 2.9 0.8 4.2 0.6 1.3 1.4 2.5 2.4 3.5 1 1.1 2.3 1.9 3.6 2.4 1.3 0.6 2.8 0.8 4.2 0.8 1.4 0 2.9-0.2 4.2-0.8 1.3-0.5 2.6-1.3 3.6-2.4 1-1 1.8-2.2 2.4-3.5 0.5-1.3 0.8-2.7 0.8-4.2z" class="s0"/></svg>