<svg xmlns="http://www.w3.org/2000/svg" width="41" height="41" version="1.2" viewBox="0 0 41 41"><title>Vector</title><style>.s0{fill:#73c22e}</style><path id="Vector" fill-rule="evenodd" d="m35.1 35.1c-3.7 3.8-8.8 5.9-14.1 5.9-5.3 0-10.4-2.1-14.1-5.9-3.8-3.7-5.9-8.8-5.9-14.1 0-5.3 2.1-10.4 5.9-14.1 3.7-3.8 8.8-5.9 14.1-5.9 5.3 0 10.4 2.1 14.1 5.9 3.8 3.7 5.9 8.8 5.9 14.1 0 5.3-2.1 10.4-5.9 14.1zm-25-14.3q-1.5 0.6-1.5 1.1c-0.1 0.6 0.7 0.8 1.7 1.2l0.4 0.1c1 0.3 2.4 0.7 3.1 0.7q1 0.1 2.2-0.8 8.2-5.5 8.4-5.5c0.2-0.1 0.3-0.1 0.5 0 0.1 0.1 0.1 0.3 0 0.4 0 0.3-3 3.1-4.6 4.5-0.5 0.5-0.8 0.8-0.9 0.8q-0.2 0.3-0.4 0.5c-1 0.9-1.7 1.6 0 2.7 0.8 0.6 1.5 1 2.1 1.5 0.7 0.4 1.4 0.9 2.4 1.5q0.3 0.3 0.6 0.5c0.9 0.6 1.6 1.1 2.5 1 0.6 0 1.1-0.5 1.4-2 0.7-3.6 2-11.2 2.3-14.4q0-0.4-0.1-0.8 0-0.3-0.2-0.5-0.4-0.3-0.8-0.3c-0.8 0.1-1.9 0.5-7.5 2.8q-2.9 1.2-11.6 5z" class="s0"/></svg>