<svg xmlns="http://www.w3.org/2000/svg" width="682.667" height="682.667" preserveAspectRatio="xMidYMid meet" version="1.0" viewBox="0 0 512 512"><metadata>Created by potrace 1.14, written by Peter Selinger 2001-2017</metadata><g fill="#000" stroke="none"><path d="M2518 5106 c-10 -7 -21 -24 -26 -37 -13 -37 -8 -298 8 -344 28 -87 77 -150 150 -192 74 -44 100 -46 455 -47 310 -2 343 -3 378 -20 59 -29 96 -87 101 -160 5 -58 -49 -144 -104 -169 -16 -7 -152 -13 -385 -17 l-360 -5 -55 -26 c-87 -41 -166 -134 -186 -220 -3 -13 -7 -111 -8 -218 l-2 -194 -28 -4 c-106 -14 -171 -103 -175 -235 -1 -40 -4 -74 -6 -77 -3 -2 -43 -4 -90 -4 l-84 0 -63 55 c-51 45 -98 79 -196 144 -2 1 -14 49 -27 106 -13 58 -37 132 -53 165 -41 81 -116 156 -188 189 -59 27 -61 27 -304 29 -136 1 -263 -3 -285 -9 -45 -11 -114 -47 -152 -79 -77 -67 -142 -216 -167 -384 -1 -7 -36 -35 -77 -62 -207 -139 -387 -379 -462 -617 -14 -44 -28 -100 -32 -125 -3 -24 -9 -53 -12 -64 -4 -11 -7 -150 -8 -310 -2 -317 2 -347 49 -359 26 -6 26 -7 26 -106 0 -84 -3 -100 -15 -100 -9 0 -26 -11 -38 -24 l-22 -24 1 -453 c1 -471 3 -511 31 -594 57 -178 179 -323 345 -410 68 -36 160 -72 208 -80 14 -3 47 -9 75 -14 73 -14 260 -6 335 13 36 10 106 37 155 61 103 49 210 141 268 228 19 28 117 214 217 412 258 509 284 552 355 581 35 15 94 17 478 19 489 1 519 -2 568 -58 47 -53 108 -165 298 -540 225 -446 247 -479 374 -575 139 -105 294 -151 495 -147 103 2 144 8 215 29 263 79 442 242 518 476 30 93 32 130 34 590 2 480 0 493 -50 506 -24 6 -25 8 -25 103 l0 96 29 13 c17 7 33 25 38 40 11 32 10 542 -1 622 -25 179 -77 317 -186 485 -52 81 -74 108 -152 187 -53 54 -203 171 -228 180 -10 3 -18 32 -36 128 -9 52 -49 147 -81 196 -42 64 -90 106 -162 141 l-56 27 -265 0 -265 0 -60 -29 c-124 -60 -199 -170 -240 -353 -13 -57 -25 -105 -27 -106 -35 -18 -156 -108 -197 -147 l-54 -51 -89 0 c-48 -1 -91 1 -94 5 -3 3 -7 41 -8 84 -2 78 -18 125 -55 163 -25 28 -84 60 -107 60 -12 0 -26 6 -31 13 -5 6 -9 92 -8 193 1 203 6 219 78 278 l39 31 366 5 367 5 55 27 c98 48 160 124 183 223 17 75 14 126 -13 197 -29 78 -87 141 -167 180 l-66 32 -351 1 -351 1 -45 24 c-34 19 -51 37 -70 77 -24 48 -26 62 -25 185 1 73 -3 143 -8 154 -16 39 -76 55 -109 30z" transform="translate(0.000000,512.000000) scale(0.100000,-0.100000)"/></g></svg>