<svg version="1.2" xmlns="http://www.w3.org/2000/svg" viewBox="0 0 42 42" width="42" height="42">
	<title>Vector</title>
	<style>
		.s0 { fill: #73c22e } 
	</style>
	<path id="Vector" fill-rule="evenodd" class="s0" d="m40.2 21c0 10.6-8.6 19.2-19.2 19.2-10.6 0-19.2-8.6-19.2-19.2 0-10.6 8.6-19.2 19.2-19.2 10.6 0 19.2 8.6 19.2 19.2zm-11.8 2.5c-1.6-1.5-1.6-1.6-0.1-3.5l0.7-1c1.6-2.2 1.7-2.9 1.7-3.2-0.1-0.1-0.4-0.2-0.7-0.2h-3.6q-0.1 0-0.3 0.1c-0.1 0.1-0.1 0.2-0.2 0.3q-0.5 1.3-1.2 2.5c-1.5 2.6-2 2.6-2.2 2.6q-0.1 0-0.2-0.1c-0.5-0.4-0.5-1.2-0.5-1.9q0-0.2 0-0.4 0-0.8 0.1-1.5c0-1.4 0-1.8-0.7-2-0.3-0.1-0.5-0.1-1.4-0.1h-0.5c-0.8 0-1.6 0-2.1 0.2q-0.3 0.1-0.4 0.4c0.2 0 0.7 0.1 0.9 0.5 0.4 0.4 0.4 1.4 0.4 1.5 0 0.5 0.1 2.9-0.6 3.3q-0.1 0.1-0.2 0.1c-0.6 0-1.2-0.8-2.3-2.6-0.6-1.2-1-2.2-1.1-2.4-0.1-0.2-0.2-0.5-0.6-0.5h-3.1c-0.3 0-0.6 0.2-0.5 0.6 0.1 0 2.4 5.6 5.1 8.4 2.1 2.3 4.6 2.5 5 2.5h1.4c0.3 0 0.6-0.3 0.6-0.8 0-1.4 0.5-2 0.9-2.1q0.1 0 0.2 0c0.5 0 1 0.6 1.6 1.2 0.4 0.5 0.8 1 1.2 1.2 0.5 0.4 1 0.5 1.2 0.5h3c0.1-0.1 0.6-0.2 0.7-0.5q0.2-0.2-0.1-0.6 0-0.1 0-0.1c-0.4-0.8-2.1-2.4-2.1-2.4z"/>
</svg>